<mxfile host="65bd71144e">
    <diagram name="Page-1" id="w5HSdk9_wppKK-HO8U82">
        <mxGraphModel dx="832" dy="467" grid="1" gridSize="10" guides="1" tooltips="1" connect="1" arrows="1" fold="1" page="1" pageScale="1" pageWidth="850" pageHeight="1100" math="0" shadow="0">
            <root>
                <mxCell id="0"/>
                <mxCell id="1" parent="0"/>
                <mxCell id="54" value="" style="rounded=1;whiteSpace=wrap;html=1;" vertex="1" parent="1">
                    <mxGeometry x="40" y="470" width="180" height="60" as="geometry"/>
                </mxCell>
                <mxCell id="2" value="" style="rounded=0;whiteSpace=wrap;html=1;" vertex="1" parent="1">
                    <mxGeometry x="170" y="40" width="635" height="360" as="geometry"/>
                </mxCell>
                <mxCell id="3" value="Azure VNET" style="text;html=1;align=center;verticalAlign=middle;resizable=0;points=[];autosize=1;strokeColor=none;fillColor=none;" vertex="1" parent="1">
                    <mxGeometry x="370" y="40" width="90" height="30" as="geometry"/>
                </mxCell>
                <mxCell id="4" value="" style="rounded=1;whiteSpace=wrap;html=1;" vertex="1" parent="1">
                    <mxGeometry x="185" y="70" width="185" height="230" as="geometry"/>
                </mxCell>
                <mxCell id="5" value="Pubic Subnet" style="text;html=1;align=center;verticalAlign=middle;resizable=0;points=[];autosize=1;strokeColor=none;fillColor=none;" vertex="1" parent="1">
                    <mxGeometry x="190" y="100" width="90" height="30" as="geometry"/>
                </mxCell>
                <mxCell id="7" value="" style="rounded=1;whiteSpace=wrap;html=1;" vertex="1" parent="1">
                    <mxGeometry x="190" y="140" width="170" height="140" as="geometry"/>
                </mxCell>
                <mxCell id="6" value="Azure Gateway&lt;div&gt;WAF&lt;/div&gt;&lt;div&gt;- Inspects traffic&lt;/div&gt;&lt;div&gt;- Routes traffic to AKS Ingress&amp;nbsp;&amp;nbsp;&amp;nbsp;&lt;/div&gt;&lt;div&gt;&lt;br&gt;&lt;/div&gt;" style="text;html=1;align=center;verticalAlign=middle;resizable=0;points=[];autosize=1;strokeColor=none;fillColor=none;" vertex="1" parent="1">
                    <mxGeometry x="180" y="160" width="190" height="90" as="geometry"/>
                </mxCell>
                <mxCell id="11" value="" style="whiteSpace=wrap;html=1;aspect=fixed;" vertex="1" parent="1">
                    <mxGeometry x="460" y="60" width="330" height="330" as="geometry"/>
                </mxCell>
                <mxCell id="12" value="Private Subnet" style="text;html=1;align=center;verticalAlign=middle;resizable=0;points=[];autosize=1;strokeColor=none;fillColor=none;" vertex="1" parent="1">
                    <mxGeometry x="550" y="60" width="100" height="30" as="geometry"/>
                </mxCell>
                <mxCell id="13" value="" style="shape=flexArrow;endArrow=classic;startArrow=classic;html=1;exitX=-0.057;exitY=0.067;exitDx=0;exitDy=0;exitPerimeter=0;" edge="1" parent="1">
                    <mxGeometry width="100" height="100" relative="1" as="geometry">
                        <mxPoint x="371.01" y="147.01" as="sourcePoint"/>
                        <mxPoint x="460" y="145" as="targetPoint"/>
                    </mxGeometry>
                </mxCell>
                <mxCell id="16" value="" style="shape=process;whiteSpace=wrap;html=1;backgroundOutline=1;" vertex="1" parent="1">
                    <mxGeometry x="470" y="95" width="280" height="95" as="geometry"/>
                </mxCell>
                <mxCell id="17" value="Aks Cluster&lt;div&gt;(Ingress Controller for routing)&lt;/div&gt;&lt;div&gt;&lt;div&gt;&amp;nbsp;Routes traffic to appropriate&lt;/div&gt;&lt;div&gt;&amp;nbsp; &amp;nbsp; microservice&lt;span style=&quot;background-color: transparent;&quot;&gt;&amp;nbsp;&amp;nbsp;&lt;/span&gt;&lt;/div&gt;&lt;/div&gt;" style="text;html=1;align=center;verticalAlign=middle;resizable=0;points=[];autosize=1;strokeColor=none;fillColor=none;" vertex="1" parent="1">
                    <mxGeometry x="515" y="107.5" width="180" height="70" as="geometry"/>
                </mxCell>
                <mxCell id="21" value="Azure Db&lt;br&gt;&lt;span style=&quot;background-color: transparent;&quot;&gt;Postgres&lt;/span&gt;" style="shape=cylinder3;whiteSpace=wrap;html=1;boundedLbl=1;backgroundOutline=1;size=15;" vertex="1" parent="1">
                    <mxGeometry x="680" y="268" width="67.5" height="70" as="geometry"/>
                </mxCell>
                <mxCell id="23" value="Azure Key Vault&lt;div&gt;Fetch database credentials&lt;/div&gt;&lt;div&gt;Access third-party API keys&amp;nbsp;&lt;/div&gt;" style="shape=parallelogram;perimeter=parallelogramPerimeter;whiteSpace=wrap;html=1;fixedSize=1;" vertex="1" parent="1">
                    <mxGeometry x="460" y="271" width="190" height="60" as="geometry"/>
                </mxCell>
                <mxCell id="27" value="&lt;div&gt;Azure DevOps build Pipe line&amp;nbsp;&lt;/div&gt;&lt;div&gt;&lt;span style=&quot;background-color: transparent;&quot;&gt;CI / CD Automation&lt;/span&gt;&lt;/div&gt;&lt;div&gt;&lt;span style=&quot;background-color: transparent;&quot;&gt;&amp;nbsp;Triggers on Code Commit&amp;nbsp;&lt;/span&gt;&lt;/div&gt;&lt;div&gt;&lt;span style=&quot;background-color: transparent;&quot;&gt;Builds Docker Image using Dockerfile&amp;nbsp;&lt;/span&gt;&lt;/div&gt;&lt;div&gt;&lt;span style=&quot;background-color: transparent;&quot;&gt;Runs unit tests&lt;/span&gt;&lt;/div&gt;" style="rounded=1;whiteSpace=wrap;html=1;" vertex="1" parent="1">
                    <mxGeometry x="280" y="440" width="200" height="120" as="geometry"/>
                </mxCell>
                <mxCell id="34" value="" style="rounded=1;whiteSpace=wrap;html=1;" vertex="1" parent="1">
                    <mxGeometry x="10" y="130" width="90" height="60" as="geometry"/>
                </mxCell>
                <mxCell id="33" value="User Requests&amp;nbsp;&lt;br&gt;App Url" style="text;html=1;align=center;verticalAlign=middle;resizable=0;points=[];autosize=1;strokeColor=none;fillColor=none;" vertex="1" parent="1">
                    <mxGeometry y="145" width="110" height="40" as="geometry"/>
                </mxCell>
                <mxCell id="35" value="" style="shape=flexArrow;endArrow=classic;startArrow=classic;html=1;" edge="1" parent="1">
                    <mxGeometry width="100" height="100" relative="1" as="geometry">
                        <mxPoint x="100" y="164.5" as="sourcePoint"/>
                        <mxPoint x="170" y="164" as="targetPoint"/>
                    </mxGeometry>
                </mxCell>
                <mxCell id="39" value="" style="rounded=1;whiteSpace=wrap;html=1;" vertex="1" parent="1">
                    <mxGeometry x="476.25" y="218" width="280" height="22" as="geometry"/>
                </mxCell>
                <mxCell id="37" value="Microservices&amp;nbsp; Interact&amp;nbsp; with DB for Data" style="text;html=1;align=center;verticalAlign=middle;resizable=0;points=[];autosize=1;strokeColor=none;fillColor=none;" vertex="1" parent="1">
                    <mxGeometry x="490" y="216" width="240" height="30" as="geometry"/>
                </mxCell>
                <mxCell id="44" value="" style="endArrow=classic;startArrow=classic;html=1;entryX=0.5;entryY=1;entryDx=0;entryDy=0;" edge="1" parent="1" source="37" target="16">
                    <mxGeometry width="50" height="50" relative="1" as="geometry">
                        <mxPoint x="500" y="240" as="sourcePoint"/>
                        <mxPoint x="550" y="190" as="targetPoint"/>
                    </mxGeometry>
                </mxCell>
                <mxCell id="45" value="" style="endArrow=classic;startArrow=classic;html=1;entryX=0.5;entryY=1;entryDx=0;entryDy=0;" edge="1" parent="1">
                    <mxGeometry width="50" height="50" relative="1" as="geometry">
                        <mxPoint x="541" y="267" as="sourcePoint"/>
                        <mxPoint x="541" y="241" as="targetPoint"/>
                    </mxGeometry>
                </mxCell>
                <mxCell id="46" value="" style="endArrow=classic;startArrow=classic;html=1;entryX=0.5;entryY=1;entryDx=0;entryDy=0;" edge="1" parent="1">
                    <mxGeometry width="50" height="50" relative="1" as="geometry">
                        <mxPoint x="712" y="266" as="sourcePoint"/>
                        <mxPoint x="712" y="240" as="targetPoint"/>
                    </mxGeometry>
                </mxCell>
                <mxCell id="49" value="Developer Commits&lt;div&gt;code&lt;/div&gt;&lt;div&gt;To GitHub or Azure Repos&lt;/div&gt;" style="text;html=1;align=center;verticalAlign=middle;resizable=0;points=[];autosize=1;strokeColor=none;fillColor=none;" vertex="1" parent="1">
                    <mxGeometry x="50" y="470" width="160" height="60" as="geometry"/>
                </mxCell>
                <mxCell id="51" value="" style="endArrow=classic;startArrow=classic;html=1;entryX=0;entryY=0.5;entryDx=0;entryDy=0;" edge="1" parent="1">
                    <mxGeometry width="50" height="50" relative="1" as="geometry">
                        <mxPoint x="220" y="500" as="sourcePoint"/>
                        <mxPoint x="280" y="500" as="targetPoint"/>
                    </mxGeometry>
                </mxCell>
                <mxCell id="55" value="ACR&lt;div&gt;Pushes Docker Image to ACR&amp;nbsp;&lt;/div&gt;&lt;div&gt;image stored&amp;nbsp;&lt;/div&gt;" style="rounded=1;whiteSpace=wrap;html=1;" vertex="1" parent="1">
                    <mxGeometry x="540" y="470" width="110" height="80" as="geometry"/>
                </mxCell>
                <mxCell id="56" value="" style="endArrow=classic;startArrow=classic;html=1;entryX=0;entryY=0.5;entryDx=0;entryDy=0;" edge="1" parent="1">
                    <mxGeometry width="50" height="50" relative="1" as="geometry">
                        <mxPoint x="479" y="507" as="sourcePoint"/>
                        <mxPoint x="539" y="507" as="targetPoint"/>
                    </mxGeometry>
                </mxCell>
                <mxCell id="58" value="" style="edgeStyle=segmentEdgeStyle;endArrow=classic;html=1;curved=0;rounded=0;endSize=8;startSize=8;sourcePerimeterSpacing=0;targetPerimeterSpacing=0;entryX=1;entryY=0.25;entryDx=0;entryDy=0;exitX=1;exitY=0.5;exitDx=0;exitDy=0;exitPerimeter=0;" edge="1" parent="1" source="55" target="2">
                    <mxGeometry width="100" relative="1" as="geometry">
                        <mxPoint x="660" y="510" as="sourcePoint"/>
                        <mxPoint x="760" y="550" as="targetPoint"/>
                        <Array as="points">
                            <mxPoint x="890" y="510"/>
                            <mxPoint x="890" y="130"/>
                        </Array>
                    </mxGeometry>
                </mxCell>
                <mxCell id="59" value="Azure Kubernetes Service (AKS)&lt;div&gt;&amp;nbsp;Pulls Docker image from ACR&lt;/div&gt;&lt;div&gt;Deploys containerized microservices&lt;/div&gt;&lt;div&gt;&lt;br&gt;&lt;/div&gt;&lt;div&gt;&lt;br&gt;&lt;/div&gt;" style="text;html=1;align=center;verticalAlign=middle;resizable=0;points=[];autosize=1;strokeColor=none;fillColor=none;" vertex="1" parent="1">
                    <mxGeometry x="680" y="440" width="220" height="90" as="geometry"/>
                </mxCell>
            </root>
        </mxGraphModel>
    </diagram>
</mxfile>